<svg xmlns="http://www.w3.org/2000/svg" viewBox="0 0 345.3 70.8"><defs><style>.cls-1{fill:#3273ae}</style></defs><g id="Layer_2" data-name="Layer 2"><g id="Layer_1-2" data-name="Layer 1"><path class="cls-1" d="M0 .8h19.4c11.4 0 18.2 6.7 18.2 16.5 0 11-8.5 16.8-19.2 16.8h-8v14.3H0zm18.8 24c5.2 0 8.2-3.1 8.2-7.2v-.1c0-4.7-3.3-7.2-8.5-7.2h-8v14.5zM46 .8h21.7a19 19 0 0113.8 4.8 15 15 0 014.1 11c0 7.7-4.1 12.5-10.2 14.8l11.6 17H74.8L64.6 33.2h-8.2v15.2H45.9zM67 24c5 0 8-2.7 8-6.7V17c0-4.5-3.1-6.8-8.2-6.8H56.4v13.6zm26.5.7v-.1C93.5 11.1 104.2 0 118.8 0s25.3 11 25.3 24.5v.1c0 13.5-10.7 24.6-25.4 24.6s-25.2-11-25.2-24.5zm39.6 0v-.1c0-8.2-6-15-14.4-15s-14.3 6.7-14.3 14.9v.1c0 8.2 6 15 14.4 15s14.3-6.7 14.3-14.9zM153.9.8h18.6c15 0 25.2 10.3 25.2 23.7v.1c0 13.4-10.3 23.8-25.2 23.8h-18.6zm10.5 9.5v28.6h8c8.6 0 14.4-5.7 14.4-14.2v-.1c0-8.4-5.8-14.3-14.3-14.3z"/><path d="M211.7.3a.8.8 0 00-.8.8l1.5 12.6a.8.8 0 00.8.8h2.4v2.4h-2.4a3.1 3.1 0 00-2.2.9 3.2 3.2 0 00-1 2.2v1.6a3.2 3.2 0 001 2.2 3.1 3.1 0 002.2 1h3.2c-.3 10.1-5.4 14.4-8.9 16.1a4 4 0 00-2.1 3.6V46a3.2 3.2 0 003.1 3.1H237a3.1 3.1 0 003.2-3.1v-1.5a4 4 0 00-2.2-3.6c-3.5-1.7-8.6-6-8.9-16.2h3.2a3.2 3.2 0 003.1-3.1V20a3.2 3.2 0 00-3.1-3.2h-2.4v-2.3h2.4a.8.8 0 00.8-.8l1.5-12.6a.8.8 0 00-.7-.8H229a.8.8 0 00-.8.8v3.1h-2.4V1.1a.8.8 0 00-.8-.8h-4.7a.8.8 0 00-.8.8v3.1h-2.3V1.1a.8.8 0 00-.8-.8z" fill="#53b5d9" fill-rule="evenodd"/><path class="cls-1" d="M249.2 24.7v-.1a24.4 24.4 0 0125-24.6c8.5 0 13.7 2.3 18.7 6.5l-6.6 8c-3.7-3-7-4.8-12.5-4.8-7.6 0-13.6 6.7-13.6 14.8v.1c0 8.7 6 15.1 14.4 15.1a16.7 16.7 0 009.8-2.8V30H274v-9h20.7v20.6a30.8 30.8 0 01-20.4 7.6c-14.8 0-25-10.4-25-24.5zm67.3 4.9L298.2.8h12.3L321.8 20l11.6-19h11.9L327 29.3v19h-10.5zM58.5 61H60v4h4.6v-4h1.7v9.6h-1.7v-4H60v4h-1.6zM69 61h7.1v1.5h-5.4V65h4.8v1.5h-4.8v2.6H76v1.5h-7zm12.6 0h1.6l4.2 9.6h-1.8l-1-2.3h-4.5l-1 2.3h-1.7zm2.4 5.8L82.4 63l-1.7 3.8zm5.2-5.8h1.6v8h5v1.5h-6.6zm9.5 1.6h-3V61h7.8v1.6h-3v8h-1.8zm6.6-1.6h1.7v4h4.6v-4h1.6v9.6h-1.6v-4H107v4h-1.7zm16.7 0h1.7v9.6H122zm4.3 0h1.6l5.1 6.6V61h1.7v9.6h-1.4l-5.3-6.8v6.8h-1.6zm10.3 8.2l1-1.2a4.5 4.5 0 003 1.2c1 0 1.7-.5 1.7-1.2s-.4-1-2.2-1.4c-2-.5-3.2-1.1-3.2-2.9 0-1.7 1.4-2.8 3.3-2.8a5.3 5.3 0 013.5 1.2l-1 1.3a4.3 4.3 0 00-2.5-1c-1 0-1.6.5-1.6 1.1 0 .8.5 1.1 2.3 1.5 2 .5 3 1.3 3 2.8 0 1.8-1.3 3-3.4 3a5.9 5.9 0 01-4-1.6zm9.4-2.7V61h1.6v5.5c0 1.7 1 2.7 2.4 2.7s2.4-1 2.4-2.7V61h1.7v5.4c0 2.9-1.6 4.3-4 4.3s-4.2-1.4-4.2-4.2zm10.6-5.5h4.2a3.9 3.9 0 012.8 1 3 3 0 01.8 2 2.9 2.9 0 01-2.3 3l2.6 3.6h-2l-2.4-3.3h-2v3.3h-1.8zm4.1 4.8c1.2 0 2-.7 2-1.6 0-1-.7-1.6-2-1.6h-2.4v3.2zM170 61h1.6l4.2 9.6H174l-1-2.3h-4.5l-1 2.3h-1.8zm2.4 5.8l-1.7-3.8-1.6 3.8zm5.1-5.8h1.5l5.1 6.6V61h1.7v9.6h-1.4l-5.3-6.8v6.8h-1.7zm10.5 4.8a4.8 4.8 0 015-5 5 5 0 013.7 1.5l-1 1.3a3.8 3.8 0 00-2.8-1.2 3.2 3.2 0 00-3.1 3.3 3.2 3.2 0 003.1 3.4 3.8 3.8 0 002.7-1.1l1.1 1a5 5 0 01-3.9 1.8 4.8 4.8 0 01-4.8-5zm10.6-4.8h7v1.5h-5.3V65h4.8v1.5h-4.8v2.6h5.5v1.5h-7.2zm14.6 8.2l1-1.2a4.5 4.5 0 003 1.2c1 0 1.7-.5 1.7-1.2s-.3-1-2.1-1.4c-2-.5-3.2-1.1-3.2-2.9 0-1.7 1.4-2.8 3.3-2.8a5.3 5.3 0 013.4 1.2l-.9 1.3a4.3 4.3 0 00-2.6-1c-1 0-1.5.5-1.5 1.1 0 .8.4 1.1 2.2 1.5 2 .5 3.1 1.3 3.1 2.8 0 1.8-1.4 3-3.4 3a5.9 5.9 0 01-4-1.6zm9.6-8.2h7v1.5h-5.4V65h4.8v1.5h-4.8v2.6h5.5v1.5h-7.1zm9.2 0h4.3a3.9 3.9 0 012.7 1 3 3 0 01.8 2 2.9 2.9 0 01-2.2 3l2.6 3.6h-2l-2.4-3.3h-2.1v3.3H232zm4.2 4.8c1.2 0 2-.7 2-1.6 0-1-.8-1.6-2-1.6h-2.5v3.2zM241 61h1.8l2.9 7.4 2.9-7.4h1.8l-4 9.7h-1.5zm11.2 0h1.7v9.6h-1.7zm3.9 4.8a4.8 4.8 0 015-5 5 5 0 013.7 1.5l-1 1.3a3.8 3.8 0 00-2.7-1.2 3.2 3.2 0 00-3.2 3.3 3.2 3.2 0 003.2 3.4 3.8 3.8 0 002.7-1.1l1.1 1a5 5 0 01-3.9 1.8 4.8 4.8 0 01-4.9-5zm10.7-4.8h7v1.5h-5.4V65h4.9v1.5h-4.9v2.6h5.5v1.5h-7.1zm8.6 8.2l1-1.2a4.5 4.5 0 003 1.2c1 0 1.7-.5 1.7-1.2s-.4-1-2.2-1.4c-2-.5-3.2-1.1-3.2-2.9 0-1.7 1.4-2.8 3.3-2.8a5.3 5.3 0 013.5 1.2l-1 1.3a4.3 4.3 0 00-2.5-1c-1 0-1.6.5-1.6 1.1 0 .8.5 1.1 2.3 1.5 2 .5 3 1.3 3 2.8 0 1.8-1.3 3-3.3 3a5.9 5.9 0 01-4-1.6z"/></g></g></svg>